<?xml version="1.0" standalone="no"?>
<!DOCTYPE svg PUBLIC "-//W3C//DTD SVG 20010904//EN"
 "http://www.w3.org/TR/2001/REC-SVG-20010904/DTD/svg10.dtd">
<svg version="1.0" xmlns="http://www.w3.org/2000/svg"
 width="700.000000pt" height="700.000000pt" viewBox="0 0 700.000000 700.000000"
 preserveAspectRatio="xMidYMid meet">
<metadata>
Created by potrace 1.14, written by Peter Selinger 2001-2017
</metadata>
<g transform="translate(0.000000,700.000000) scale(0.100000,-0.100000)"
fill="#000000" stroke="none">
<path d="M3278 6995 c-1 -1 -42 -5 -89 -9 -47 -4 -95 -8 -105 -10 -10 -2 -41
-7 -69 -10 -335 -44 -715 -158 -1030 -312 -180 -87 -448 -247 -555 -331 -8 -6
-51 -40 -95 -74 -404 -314 -757 -754 -986 -1226 -32 -68 -59 -125 -59 -127 0
-3 -11 -29 -24 -58 -41 -92 -114 -303 -142 -413 -4 -16 -8 -34 -10 -40 -5 -16
-25 -98 -30 -120 -39 -194 -47 -242 -60 -350 -26 -230 -26 -667 1 -826 2 -13
6 -46 9 -74 9 -78 22 -152 51 -285 21 -96 91 -339 114 -395 5 -11 30 -75 55
-142 54 -140 181 -394 249 -501 26 -40 47 -75 47 -78 0 -2 4 -10 10 -17 5 -7
46 -64 91 -126 318 -451 749 -825 1249 -1083 230 -119 465 -208 740 -280 l155
-41 700 0 c771 -1 707 -5 955 65 269 75 543 189 764 317 49 28 93 51 97 51 5
0 9 5 9 10 0 6 5 10 10 10 15 0 220 141 330 227 152 118 324 280 450 422 36
41 70 79 76 85 6 6 48 61 94 121 150 197 277 405 383 628 26 53 47 99 47 102
0 2 11 28 24 57 57 127 146 405 182 573 16 72 19 213 18 805 l-2 665 -35 140
c-181 717 -577 1351 -1144 1834 -60 51 -159 125 -333 248 -111 79 -424 244
-600 316 -224 91 -559 185 -760 212 -19 3 -46 7 -60 10 -13 2 -52 7 -86 11
-33 3 -74 8 -90 10 -32 5 -540 14 -546 9z"/>
</g>
</svg>
